<?xml version="1.0" encoding="iso-8859-1"?>
<!-- Generator: Adobe Illustrator 19.0.0, SVG Export Plug-In . SVG Version: 6.00 Build 0)  -->
<svg version="1.1" id="Capa_1" xmlns="http://www.w3.org/2000/svg" xmlns:xlink="http://www.w3.org/1999/xlink" x="0px" y="0px"
	 viewBox="0 0 512 512" style="enable-background:new 0 0 512 512;" xml:space="preserve">
<path style="fill:#FFFBEA;" d="M486.4,124.45H25.6c-9.429,0-17.067,7.637-17.067,17.067v135.612c0,9.933,8.055,17.988,17.988,17.988
	l0,0h458.957c9.933,0,17.988-8.055,17.988-17.988l0,0V141.517C503.467,132.087,495.829,124.45,486.4,124.45z M460.8,269.517H51.2
	v-34.133h409.6V269.517z"/>
<g>
	<rect x="51.2" y="235.383" style="fill:#78B9EB;" width="68.267" height="34.133"/>
	<rect x="119.467" y="235.383" style="fill:#78B9EB;" width="68.267" height="34.133"/>
	<rect x="187.733" y="235.383" style="fill:#78B9EB;" width="68.267" height="34.133"/>
	<rect x="256" y="235.383" style="fill:#78B9EB;" width="68.267" height="34.133"/>
	<rect x="324.267" y="235.383" style="fill:#78B9EB;" width="68.267" height="34.133"/>
	<rect x="392.533" y="235.383" style="fill:#78B9EB;" width="68.267" height="34.133"/>
</g>
<g>
	<path style="fill:#231F20;" d="M486.4,115.917H25.6c-14.14,0-25.6,11.46-25.6,25.6v135.612
		c0.017,14.643,11.878,26.505,26.522,26.522h458.957c14.643-0.017,26.505-11.878,26.522-26.522V141.517
		C512,127.377,500.54,115.917,486.4,115.917z M494.933,277.129c-0.009,5.222-4.233,9.446-9.455,9.455H26.522
		c-5.222-0.009-9.446-4.233-9.455-9.455V141.517c0-4.71,3.823-8.533,8.533-8.533h460.8c4.71,0,8.533,3.823,8.533,8.533V277.129z"/>
	<path style="fill:#231F20;" d="M460.8,226.85H51.2c-4.71,0-8.533,3.823-8.533,8.533v34.133c0,4.71,3.823,8.533,8.533,8.533h409.6
		c4.71,0,8.533-3.823,8.533-8.533v-34.133C469.333,230.673,465.51,226.85,460.8,226.85z M59.733,243.917h51.2v17.067h-51.2V243.917z
		 M128,243.917h51.2v17.067H128V243.917z M196.267,243.917h51.2v17.067h-51.2V243.917z M264.533,243.917h51.2v17.067h-51.2V243.917z
		 M332.8,243.917H384v17.067h-51.2V243.917z M452.267,260.983h-51.2v-17.067h51.2V260.983z"/>
	<rect x="42.667" y="167.117" style="fill:#231F20;" width="34.133" height="17.067"/>
	<rect x="93.867" y="167.117" style="fill:#231F20;" width="17.067" height="17.067"/>
	<rect x="460.8" y="150.05" style="fill:#231F20;" width="17.067" height="17.067"/>
	<rect x="460.8" y="175.65" style="fill:#231F20;" width="17.067" height="17.067"/>
	<rect x="435.2" y="150.05" style="fill:#231F20;" width="17.067" height="17.067"/>
	<path style="fill:#231F20;" d="M91.366,326.75L79.3,314.684c-12.757,12.032-13.346,32.128-1.314,44.885
		c0.427,0.452,0.862,0.887,1.314,1.314c2.202,1.698,3.447,4.361,3.337,7.142c-0.563,5.845-8.021,12.134-10.598,13.875l4.762,7.083
		l4.736,7.1c9.301-6.016,15.812-15.505,18.082-26.351c0.649-7.876-2.398-15.607-8.252-20.915c-6.093-5.367-6.682-14.66-1.314-20.753
		C90.462,327.603,90.897,327.16,91.366,326.75z"/>
	<path style="fill:#231F20;" d="M159.633,326.75l-12.066-12.066c-12.757,12.032-13.346,32.128-1.314,44.885
		c0.427,0.452,0.862,0.887,1.314,1.314c2.202,1.698,3.447,4.361,3.337,7.142c-0.563,5.845-8.021,12.134-10.598,13.875l4.762,7.083
		l4.736,7.1c9.301-6.016,15.812-15.505,18.082-26.351c0.649-7.876-2.398-15.607-8.252-20.915c-6.093-5.367-6.682-14.66-1.314-20.753
		C158.729,327.603,159.164,327.16,159.633,326.75z"/>
	<path style="fill:#231F20;" d="M227.9,326.75l-12.066-12.066c-12.757,12.032-13.346,32.128-1.314,44.885
		c0.427,0.452,0.862,0.887,1.314,1.314c2.202,1.698,3.447,4.361,3.337,7.142c-0.563,5.845-8.021,12.134-10.598,13.875l4.762,7.083
		l4.736,7.1c9.301-6.016,15.812-15.505,18.082-26.351c0.649-7.876-2.398-15.607-8.252-20.915c-6.093-5.367-6.682-14.66-1.314-20.753
		C226.995,327.603,227.43,327.16,227.9,326.75z"/>
	<path style="fill:#231F20;" d="M296.166,326.75L284.1,314.684c-12.757,12.032-13.346,32.128-1.314,44.885
		c0.427,0.452,0.862,0.887,1.314,1.314c2.202,1.698,3.447,4.361,3.337,7.142c-0.563,5.845-8.021,12.134-10.598,13.875l4.762,7.083
		l4.736,7.1c9.301-6.016,15.812-15.505,18.082-26.351c0.649-7.876-2.398-15.607-8.252-20.915c-6.093-5.367-6.682-14.66-1.314-20.753
		C295.262,327.603,295.697,327.16,296.166,326.75z"/>
	<path style="fill:#231F20;" d="M364.433,326.75l-12.066-12.066c-12.757,12.032-13.346,32.128-1.314,44.885
		c0.427,0.452,0.862,0.887,1.314,1.314c2.202,1.698,3.447,4.361,3.337,7.142c-0.563,5.845-8.021,12.134-10.598,13.875l4.762,7.083
		l4.736,7.1c9.301-6.016,15.812-15.505,18.082-26.351c0.649-7.876-2.398-15.607-8.252-20.915c-6.093-5.367-6.682-14.66-1.314-20.753
		C363.529,327.603,363.964,327.16,364.433,326.75z"/>
	<path style="fill:#231F20;" d="M432.7,326.75l-12.066-12.066c-12.757,12.032-13.346,32.128-1.314,44.885
		c0.427,0.452,0.862,0.887,1.314,1.314c2.202,1.698,3.447,4.361,3.337,7.142c-0.563,5.845-8.021,12.134-10.598,13.875l4.762,7.083
		l4.736,7.1c9.301-6.016,15.812-15.505,18.082-26.351c0.649-7.876-2.398-15.607-8.252-20.915c-6.093-5.367-6.682-14.66-1.314-20.753
		C431.795,327.603,432.23,327.16,432.7,326.75z"/>
</g>
<g>
</g>
<g>
</g>
<g>
</g>
<g>
</g>
<g>
</g>
<g>
</g>
<g>
</g>
<g>
</g>
<g>
</g>
<g>
</g>
<g>
</g>
<g>
</g>
<g>
</g>
<g>
</g>
<g>
</g>
</svg>
