<?xml version="1.0" encoding="iso-8859-1"?>
<!-- Generator: Adobe Illustrator 19.0.0, SVG Export Plug-In . SVG Version: 6.00 Build 0)  -->
<svg version="1.1" id="Capa_1" xmlns="http://www.w3.org/2000/svg" xmlns:xlink="http://www.w3.org/1999/xlink" x="0px" y="0px"
	 viewBox="0 0 512 512" style="enable-background:new 0 0 512 512;" xml:space="preserve">
<g>
	<path style="fill:#FFF7D5;" d="M8.533,392.533h494.933V273.067H8.533V392.533z M34.133,298.667h443.733v68.267H34.133V298.667z"/>
	<rect x="256" y="298.667" style="fill:#FFF7D5;" width="221.867" height="68.267"/>
	<rect x="34.133" y="298.667" style="fill:#FFF7D5;" width="221.867" height="68.267"/>
	<rect x="25.6" y="392.533" style="fill:#FFF7D5;" width="25.6" height="110.933"/>
	<rect x="460.8" y="392.533" style="fill:#FFF7D5;" width="25.6" height="110.933"/>
	<path style="fill:#FFF7D5;" d="M256,8.533C119.33,8.533,8.533,62.02,8.533,128S119.33,247.467,256,247.467
		S503.467,193.98,503.467,128S392.67,8.533,256,8.533z M256,221.867c-130.748,0-221.867-49.493-221.867-93.867
		S125.252,34.133,256,34.133S477.867,83.627,477.867,128S386.748,221.867,256,221.867z"/>
</g>
<ellipse style="fill:#78B9EB;" cx="256" cy="128" rx="221.867" ry="93.867"/>
<g>
	<path style="fill:#231F20;" d="M0,401.067h17.067V512h42.667V401.067h392.533V512h42.667V401.067H512V264.533H0V401.067z
		 M42.667,494.933h-8.533v-93.867h8.533V494.933z M477.867,494.933h-8.533v-93.867h8.533V494.933z M17.067,281.6h477.867V384H17.067
		V281.6z"/>
	<path style="fill:#231F20;" d="M486.4,290.133H25.6v85.333h460.8V290.133z M42.667,307.2h204.8v51.2h-204.8V307.2z M469.333,358.4
		h-204.8v-51.2h204.8V358.4z"/>
	<rect x="358.4" y="324.267" style="fill:#231F20;" width="34.133" height="17.067"/>
	<rect x="119.467" y="324.267" style="fill:#231F20;" width="34.133" height="17.067"/>
	<path style="fill:#231F20;" d="M256,256c143.548,0,256-56.226,256-128S399.548,0,256,0S0,56.226,0,128S112.452,256,256,256z
		 M256,17.067c129.519,0,238.933,50.799,238.933,110.933S385.519,238.933,256,238.933S17.067,188.134,17.067,128
		S126.481,17.067,256,17.067z"/>
	<path style="fill:#231F20;" d="M256,230.4c137.822,0,230.4-52.907,230.4-102.4S393.822,25.6,256,25.6S25.6,78.549,25.6,128
		S118.178,230.4,256,230.4z M256,42.667c132.173,0,213.333,49.698,213.333,85.333S388.173,213.333,256,213.333
		S42.667,163.635,42.667,128S123.827,42.667,256,42.667z"/>
	
		<rect x="93.256" y="102.402" transform="matrix(-0.7071 0.7071 -0.7071 -0.7071 340.6312 80.7762)" style="fill:#231F20;" width="120.66" height="17.067"/>
	
		<rect x="135.927" y="102.398" transform="matrix(-0.7071 0.7071 -0.7071 -0.7071 413.472 50.596)" style="fill:#231F20;" width="120.66" height="17.067"/>
</g>
<g>
</g>
<g>
</g>
<g>
</g>
<g>
</g>
<g>
</g>
<g>
</g>
<g>
</g>
<g>
</g>
<g>
</g>
<g>
</g>
<g>
</g>
<g>
</g>
<g>
</g>
<g>
</g>
<g>
</g>
</svg>
