<svg height="480pt" viewBox="-77 0 480 480.73028" width="480pt" xmlns="http://www.w3.org/2000/svg"><path d="m219.378906 144.53125-8.5625 32-2.71875 10.238281-10.078125 37.761719-8.640625 32-5.519531 20.71875-7.28125 27.28125-8.558594 32-12.882812 48-8.558594 32-9.679687 36.078125c-1.804688 5.625-.363282 11.785156 3.746093 16.027344 4.109375 4.238281 10.222657 5.871093 15.902344 4.242187 5.675781-1.628906 9.992187-6.253906 11.230469-12.027344l12.160156-45.441406 12.082031-45.039062 12.160157-45.359375 12.078124-45.042969 42.082032-157.199219 24.238281-90.480469 1.121094-4.160156c.382812-1.378906.570312-2.804687.558593-4.238281-.019531-7.207031-4.875-13.503906-11.839843-15.359375-2.617188-.722656-5.382813-.722656-8 0h-.160157c-5.578124 1.40625-9.957031 5.722656-11.441406 11.277344l-2.636718 9.839844-9.363282 34.882812-8.558594 32zm0 0" fill="#8b5e3c"/><path d="m219.378906 144.53125-8.5625 32-2.71875 10.238281-10.078125 37.761719-8.640625 32-5.519531 20.71875-7.28125 27.28125-8.558594 32-12.882812 48-8.558594 32-9.679687 36.078125c-1.804688 5.625-.363282 11.785156 3.746093 16.027344 4.109375 4.238281 10.222657 5.871093 15.902344 4.242187 5.675781-1.628906 9.992187-6.253906 11.230469-12.027344l12.160156-45.441406 12.082031-45.039062 12.160157-45.359375 12.078124-45.042969 42.082032-157.199219 24.238281-90.480469 1.121094-4.160156c.382812-1.378906.570312-2.804687.558593-4.238281-.019531-7.207031-4.875-13.503906-11.839843-15.359375-2.617188-.722656-5.382813-.722656-8 0h-.160157c-5.578124 1.40625-9.957031 5.722656-11.441406 11.277344l-2.636718 9.839844-9.363282 34.882812-8.558594 32zm0 0" fill="#8b5e3c"/><path d="m20.179688 472.210938c8.542968 2.253906 17.304687-2.824219 19.597656-11.359376l11.839844-44.320312 8.640624-32 12.800782-48 8.558594-32 12.878906-48 8.5625-32 12.878906-48 8.558594-32 12.882812-48 8.558594-32 9.761719-36.402344c.382812-1.378906.570312-2.804687.558593-4.238281-.058593-7.996094-6.011718-14.722656-13.941406-15.753906-7.929687-1.027344-15.402344 3.957031-17.5 11.671875l-115.917968 432.800781c-2.292969 8.527344 2.753906 17.300781 11.28125 19.601563zm0 0" fill="#8b5e3c"/><g fill="#c49a6c"><path d="m240.816406 64.53125-8.558594 32h-94.878906l8.558594-32zm0 0"/><path d="m219.378906 144.53125-8.5625 32h-94.878906l8.558594-32zm0 0"/><path d="m198.019531 224.53125-8.640625 32h-94.882812l8.5625-32zm0 0"/><path d="m176.578125 304.53125-8.558594 32h-94.960937l8.558594-32zm0 0"/><path d="m155.136719 384.53125-8.558594 32h-94.960937l8.640624-32zm0 0"/></g><path d="m319.378906 453.410156c.796875 5.847656-1.683594 11.65625-6.460937 15.121094-4.777344 3.464844-11.070313 4.015625-16.378907 1.441406-5.308593-2.578125-8.769531-7.867187-9-13.761718l-25.28125-288.402344-3.917968-45.039063 24.238281-90.480469 3.917969 45.042969zm0 0" fill="#754c29"/><path d="m60.257812 384.53125h16l-8.640624 32h-16zm0 0" fill="#a97c50"/><path d="m81.617188 304.53125h16l-8.558594 32h-16zm0 0" fill="#a97c50"/><path d="m103.058594 224.53125h16l-8.5625 32h-16zm0 0" fill="#a97c50"/><path d="m124.496094 144.53125h16l-8.558594 32h-16zm0 0" fill="#a97c50"/><path d="m161.9375 64.53125-8.558594 32h-16l8.558594-32zm0 0" fill="#a97c50"/><path d="m286.496094 77.332031-12.15625 45.4375-12.082032 45.039063-3.917968-45.039063 24.238281-90.480469zm0 0" fill="#603913"/><path d="m290.664062 33.035156.746094-2.769531c1.671875-6.15625.824219-12.722656-2.355468-18.253906-3.179688-5.527344-8.429688-9.566407-14.589844-11.21875-3.738282-.996094-7.664063-1.054688-11.429688-.167969-.25 0-.488281.089844-.738281.152344-8.386719 2.113281-14.972656 8.605468-17.207031 16.960937l-10.390625 38.792969h-78.328125l7.039062-26.265625c1.679688-6.144531.839844-12.710937-2.328125-18.238281-3.171875-5.527344-8.414062-9.5625-14.566406-11.21875-12.796875-3.402344-25.9375 4.15625-29.425781 16.929687l-115.871094 432.761719c-1.972656 7.1875-.480469 14.882812 4.035156 20.8125 4.519532 5.929688 11.542969 9.410156 18.996094 9.417969 10.871094-.039063 20.382812-7.316407 23.257812-17.800781l10.277344-38.398438h78.34375l-6.910156 25.96875c-1.972656 7.1875-.480469 14.882812 4.035156 20.8125 4.519532 5.929688 11.542969 9.410156 18.996094 9.417969 10.871094-.039063 20.382812-7.316407 23.257812-17.800781l78.820313-294.261719 25.234375 288.207031c1.03125 12.402344 11.390625 21.953125 23.839844 21.96875.734375 0 1.480468 0 2.207031-.097656 13.183594-1.195313 22.90625-12.839844 21.738281-26.023438zm-141.679687 343.496094h-78.335937l8.570312-32h78.34375zm55.691406-208h-78.304687l4.285156-16h78.296875zm-19.105469 71.40625-2.320312 8.59375h-78.3125l4.289062-16h78.335938zm-23.726562 88.59375h-78.335938l4.285157-16h78.335937zm8.574219-32h-78.335938l8.566407-32h78.335937zm21.425781-80h-78.328125l8.566406-32h78.335938zm21.429688-80h-78.335938l8.578125-32h78.328125zm17.121093-64-4.273437 16h-78.320313l4.289063-16zm-198.335937 386.222656c-.824219 3.140625-3.460938 5.46875-6.679688 5.898438-3.214844.429687-6.375-1.125-7.992187-3.9375-1.066407-1.824219-1.355469-3.996094-.800781-6.03125l115.953124-432.761719c1.136719-4.269531 5.519532-6.808594 9.789063-5.671875 3.46875.929688 5.890625 4.050781 5.929687 7.640625.011719.734375-.085937 1.464844-.289062 2.167969zm30.015625-50.222656.953125-3.554688 3.359375-12.445312h78.320312l-4.289062 16zm97.984375 50.222656c-.824219 3.140625-3.460938 5.46875-6.679688 5.898438-3.214844.429687-6.375-1.125-7.992187-3.9375-1.066407-1.824219-1.355469-3.996094-.800781-6.03125l115.9375-432.800782c.695312-2.585937 2.660156-4.640624 5.214843-5.449218.269531-.042969.535157-.101563.800781-.175782 1.222657-.34375 2.519532-.34375 3.742188 0 3.464844.929688 5.890625 4.050782 5.929688 7.640626.011718.726562-.082032 1.453124-.28125 2.152343l-1.097657 4.101563v.074218zm151.351562-4.625c.457032 2.953125-.765625 5.914063-3.175781 7.679688-2.40625 1.765625-5.597656 2.042968-8.273437.71875-2.679688-1.324219-4.394532-4.027344-4.453126-7.011719l-29.074218-332 3.632812-13.554687 8.496094-31.703126zm0 0"/></svg>