<?xml version="1.0" encoding="iso-8859-1"?>
<!-- Generator: Adobe Illustrator 19.0.0, SVG Export Plug-In . SVG Version: 6.00 Build 0)  -->
<svg version="1.1" id="Capa_1" xmlns="http://www.w3.org/2000/svg" xmlns:xlink="http://www.w3.org/1999/xlink" x="0px" y="0px"
	 viewBox="0 0 479.381 479.381" style="enable-background:new 0 0 479.381 479.381;" xml:space="preserve">
<circle style="fill:#FFCD00;" cx="307.691" cy="111.381" r="32"/>
<path style="fill:#6D6E71;" d="M283.691,439.381h-40h-32h-120v32h192V439.381z"/>
<path style="fill:#FF9275;" d="M219.691,144.517l28.288,28.288L361.115,59.669l-28.288-28.288
	c-31.379-31.105-82.031-30.883-113.136,0.496C188.779,63.062,188.779,113.333,219.691,144.517L219.691,144.517z"/>
<path style="fill:#FF9811;" d="M211.691,407.381h32v32h-32V407.381z"/>
<path style="fill:#353535;" d="M341.691,90.397l25.08-25.072c3.123-3.124,3.123-8.188,0-11.312l-28.28-28.288
	c-27.488-27.406-69.67-33.604-103.88-15.264C187.785-2.272,139.503,25.365,126.77,72.19c-2.055,7.559-3.091,15.358-3.079,23.191v336
	h-32c-4.418,0-8,3.582-8,8v32c0,4.418,3.582,8,8,8h192c4.418,0,8-3.582,8-8v-32c0-4.418-3.582-8-8-8h-32v-24c0-4.418-3.582-8-8-8
	h-32c-4.418,0-8,3.582-8,8v24h-32v-336c-0.06-14.746,8.095-28.299,21.152-35.152c-10.512,31.577-2.311,66.382,21.192,89.944
	l28.28,28.288c3.124,3.123,8.188,3.123,11.312,0l33.08-33.08c6.293,3.929,13.565,6.008,20.984,6c22.08-0.026,39.974-17.92,40-40
	C347.699,103.962,345.62,96.691,341.691,90.397L341.691,90.397z M219.691,415.381h16v16h-16V415.381z M211.691,447.381h64v16h-176
	v-16H211.691z M172.139,55.773c-10.583,10.456-16.511,24.731-16.448,39.608v336h-16v-336c0.044-39.746,32.254-71.956,72-72
	c1.528,0,3.04,0.248,4.56,0.344c-0.728,0.68-1.504,1.288-2.216,2c-4.44,4.457-8.39,9.375-11.784,14.672
	C190.852,42.247,180.321,47.625,172.139,55.773z M247.971,161.493l-22.624-22.632c-28.118-28.12-28.116-73.71,0.004-101.828
	c28.12-28.118,73.71-28.116,101.828,0.004l22.624,22.632L247.971,161.493z M307.691,135.381c-3.138-0.005-6.243-0.633-9.136-1.848
	l31.288-31.288c1.215,2.893,1.843,5.998,1.848,9.136C331.691,124.636,320.946,135.381,307.691,135.381L307.691,135.381z"/>
<g>
	<path style="fill:#FF9811;" d="M299.691,159.381h16v16h-16V159.381z"/>
	<path style="fill:#FF9811;" d="M299.691,183.381h16v16h-16V183.381z"/>
	<path style="fill:#FF9811;" d="M335.968,150.98l11.31-11.318l11.318,11.31l-11.31,11.318L335.968,150.98z"/>
	<path style="fill:#FF9811;" d="M352.943,167.925l11.316-11.312l11.312,11.316l-11.316,11.312L352.943,167.925z"/>
	<path style="fill:#FF9811;" d="M355.691,103.381h16v16h-16V103.381z"/>
	<path style="fill:#FF9811;" d="M379.691,103.381h16v16h-16V103.381z"/>
</g>
<g>
</g>
<g>
</g>
<g>
</g>
<g>
</g>
<g>
</g>
<g>
</g>
<g>
</g>
<g>
</g>
<g>
</g>
<g>
</g>
<g>
</g>
<g>
</g>
<g>
</g>
<g>
</g>
<g>
</g>
</svg>
