<?xml version="1.0" encoding="iso-8859-1"?>
<!-- Generator: Adobe Illustrator 19.0.0, SVG Export Plug-In . SVG Version: 6.00 Build 0)  -->
<svg version="1.1" id="Capa_1" xmlns="http://www.w3.org/2000/svg" xmlns:xlink="http://www.w3.org/1999/xlink" x="0px" y="0px"
	 viewBox="0 0 512 512" style="enable-background:new 0 0 512 512;" xml:space="preserve">
<g>
	<polygon style="fill:#FFFBEA;" points="230.4,42.667 230.4,8.533 17.067,8.533 17.067,42.667 42.667,42.667 204.8,42.667 	"/>
	<path style="fill:#FFFBEA;" d="M204.8,213.333V42.667H42.667v460.8h204.8l-8.533-102.4h110.933c56.55,0,102.4-45.85,102.4-102.4
		v-85.333H204.8z"/>
</g>
<polygon style="fill:#78B9EB;" points="204.8,213.333 452.267,213.333 494.933,213.333 494.933,179.2 204.8,179.2 "/>
<g>
	<path style="fill:#231F20;" d="M503.467,170.667H213.333V51.2h25.6V0H8.533v51.2h25.6V512h222.609l-8.533-102.4h101.658
		c61.235-0.068,110.865-49.698,110.933-110.933v-76.8h42.667V170.667z M25.6,34.133V17.067h196.267v17.067H25.6z M443.733,298.667
		c-0.06,51.814-42.052,93.807-93.867,93.867h-179.2V409.6h60.416l7.108,85.333H51.2V51.2h145.067v153.6h-59.733v17.067h307.2
		V298.667z M486.4,204.8H213.333v-17.067H486.4V204.8z"/>
	<rect x="68.267" y="68.267" style="fill:#231F20;" width="17.067" height="17.067"/>
	<rect x="93.867" y="68.267" style="fill:#231F20;" width="17.067" height="17.067"/>
	<rect x="68.267" y="93.867" style="fill:#231F20;" width="17.067" height="17.067"/>
</g>
<g>
</g>
<g>
</g>
<g>
</g>
<g>
</g>
<g>
</g>
<g>
</g>
<g>
</g>
<g>
</g>
<g>
</g>
<g>
</g>
<g>
</g>
<g>
</g>
<g>
</g>
<g>
</g>
<g>
</g>
</svg>
