<?xml version="1.0" encoding="iso-8859-1"?>
<!-- Generator: Adobe Illustrator 19.0.0, SVG Export Plug-In . SVG Version: 6.00 Build 0)  -->
<svg version="1.1" id="Capa_1" xmlns="http://www.w3.org/2000/svg" xmlns:xlink="http://www.w3.org/1999/xlink" x="0px" y="0px"
	 viewBox="0 0 512 512" style="enable-background:new 0 0 512 512;" xml:space="preserve">
<path style="fill:#67CDD9;" d="M37.926,303.379h436.148c5.234,0,9.482,4.248,9.482,9.482v75.852c0,5.234-4.248,9.481-9.482,9.481
	H37.926c-5.234,0-9.481-4.248-9.481-9.481v-75.852C28.444,307.627,32.692,303.379,37.926,303.379z"/>
<g>
	<path style="fill:#231F20;" d="M512,474.046H282.7c-2.873-8.031-9.188-14.345-17.218-17.218v-49.152h199.111
		c15.711,0,28.444-12.734,28.444-28.444v-56.889c0-15.711-12.734-28.444-28.444-28.444V170.639
		c0-15.711-12.734-28.444-28.444-28.444c-15.711,0-28.444,12.734-28.444,28.444v123.259H104.296V170.639
		c0-15.711-12.734-28.444-28.444-28.444s-28.444,12.734-28.444,28.444v123.259c-15.711,0-28.444,12.734-28.444,28.444v56.889
		c0,15.711,12.734,28.444,28.444,28.444h199.111v49.152c-8.031,2.873-14.345,9.188-17.218,17.218H0v18.963h229.3
		c5.139,14.744,21.257,22.537,36.001,17.398c8.154-2.835,14.554-9.244,17.398-17.398H512V474.046z M426.667,170.639
		c0-5.234,4.248-9.481,9.482-9.481c5.234,0,9.481,4.248,9.481,9.481v123.259h-18.963V170.639z M66.37,170.639
		c0-5.234,4.248-9.481,9.481-9.481s9.481,4.248,9.481,9.481v123.259H66.37V170.639z M37.926,379.231v-56.889
		c0-5.234,4.248-9.481,9.481-9.481h417.185c5.234,0,9.481,4.248,9.481,9.481v56.889c0,5.234-4.248,9.481-9.481,9.481H47.407
		C42.174,388.713,37.926,384.465,37.926,379.231z M256,493.009c-5.234,0-9.481-4.248-9.481-9.481s4.248-9.481,9.481-9.481
		c5.234,0,9.481,4.248,9.481,9.481S261.234,493.009,256,493.009z"/>
	<rect x="75.852" y="341.305" style="fill:#231F20;" width="18.963" height="18.963"/>
	<rect x="113.778" y="341.305" style="fill:#231F20;" width="18.963" height="18.963"/>
	<rect x="151.704" y="341.305" style="fill:#231F20;" width="18.963" height="18.963"/>
	<rect x="341.333" y="341.305" style="fill:#231F20;" width="18.963" height="18.963"/>
	<rect x="379.259" y="341.305" style="fill:#231F20;" width="18.963" height="18.963"/>
	<rect x="417.185" y="341.305" style="fill:#231F20;" width="18.963" height="18.963"/>
	<path style="fill:#231F20;" d="M148.859,63.498c58.918-59.174,154.643-59.383,213.817-0.465c0.152,0.152,0.313,0.313,0.465,0.465
		c3.698,3.707,9.7,3.717,13.416,0.028c3.707-3.698,3.717-9.7,0.019-13.416c-66.304-66.598-174.052-66.825-240.649-0.521
		c-0.171,0.171-0.351,0.351-0.521,0.521c-3.698,3.717-3.679,9.728,0.028,13.416C139.15,67.233,145.161,67.215,148.859,63.498z"/>
	<path style="fill:#231F20;" d="M329.766,106.354c5.234-0.028,9.463-4.295,9.434-9.529c-0.009-2.503-1.014-4.902-2.797-6.675
		c-44.449-44.392-116.452-44.392-160.901,0c-3.774,3.631-3.897,9.633-0.265,13.407c3.631,3.774,9.633,3.897,13.407,0.265
		c0.076-0.076,0.152-0.152,0.228-0.228c37.054-37.035,97.109-37.035,134.163,0C324.826,105.377,327.244,106.364,329.766,106.354z"/>
	<path style="fill:#231F20;" d="M296.306,143.74c3.679-3.726,3.65-9.728-0.076-13.407c-22.263-22.111-58.197-22.111-80.46,0
		c-3.783,3.622-3.916,9.624-0.294,13.407c3.622,3.783,9.624,3.916,13.407,0.294c0.076-0.076,0.152-0.142,0.218-0.218
		c15.076-14.317,38.722-14.317,53.798,0C286.625,147.494,292.627,147.466,296.306,143.74z"/>
	<path style="fill:#231F20;" d="M256,170.639c-15.711,0-28.444,12.734-28.444,28.444s12.734,28.444,28.444,28.444
		s28.444-12.734,28.444-28.444S271.711,170.639,256,170.639z M256,208.564c-5.234,0-9.481-4.248-9.481-9.481
		c0-5.234,4.248-9.481,9.481-9.481c5.234,0,9.481,4.248,9.481,9.481C265.481,204.317,261.234,208.564,256,208.564z"/>
</g>
<g>
</g>
<g>
</g>
<g>
</g>
<g>
</g>
<g>
</g>
<g>
</g>
<g>
</g>
<g>
</g>
<g>
</g>
<g>
</g>
<g>
</g>
<g>
</g>
<g>
</g>
<g>
</g>
<g>
</g>
</svg>
