<svg id="圖層_1" data-name="圖層 1" xmlns="http://www.w3.org/2000/svg" viewBox="0 0 175.48 145.22"><defs><style>.cls-1{fill:#7c6987;}</style></defs><path class="cls-1" d="M14.72,49.64c3,19.88,6,39.75,9.19,59.62.25,2.24,7,8.45,9.19,8.95a323.54,323.54,0,0,0,71.05,5A189.9,189.9,0,0,0,130.73,120a92.75,92.75,0,0,0,11.92-3c2.48-.74,9.44-2.23,10.93-4.22,1.24-1.74.74-6.46.74-8.2.5-6,1.25-11.92,1.74-17.88q1.5-15.66,3-31.3c.25-2.24-9.68-8.94-9.43-9.19C144.89,56.1,138.43,66,130,73c-5.46,4.47-12.42,7.94-19.62,5.71-1-.25-1.74-.75-2.74-1-1.49-.5-2.23-2.24-.24.24a72.17,72.17,0,0,1-6-9.19A153.23,153.23,0,0,1,91,41.94c-.75-2-9.44-8.19-9.44-8.94-2.48,11.92-6.71,24.59-13.17,35-3.72,6.21-9.44,12.91-16.89,13.91C37.57,84.17,29.62,68.28,23.91,58.59c-1.24-2.24-3.48-4.23-5.47-6-.49-1-4-3.23-3.72-3,7.2,12.18,15.65,23.6,26.83,33,6,5,13.41,9.94,21.61,7.7C77.32,86.66,84,67.28,88,55.11A119.9,119.9,0,0,0,91.73,41.7c-3.23-3-6.22-6-9.44-9,4.22,13.91,9.19,28.32,18.63,39.5,5.21,6.21,12.67,14.66,21.61,15.9,13.66,2,24.59-12.42,31.05-22.36a94.47,94.47,0,0,0,6.21-10.93c-3.23-3-6.21-6.21-9.44-9.19-.74,8.45-1.74,17.14-2.48,25.59-.5,6.21-1.25,12.42-1.74,18.63-.5,3.48.25,8.94-1.24,12.42C143.39,106,134,107.77,130,109a150.73,150.73,0,0,1-26.08,4.48c-16.65,1.49-33.54,1-50.43-.5a277.83,277.83,0,0,1-28.82-3.73c3,3,6.21,6,9.2,8.95-3-19.88-6-39.75-9.2-59.62-.24-2-4-4.72-5.46-6C18,51.63,14.72,48.9,14.72,49.64Z" transform="translate(0.48 -3.68)"/><path class="cls-1" d="M20.93,117.46c.74,6.71,1.49,13.66,2.23,20.37.25,2.73,2.49,4.47,5.22,5.22,14.9,3.23,30.31,4.72,45.46,5.46,26.33,1.24,54.15,0,78.25-11.67a5.84,5.84,0,0,0,3-5.22c-.25-6.21-.25-12.17-.5-18.38,0-4.72-6.95-6.46-10.43-4.23-8.69,5.47-19.13,8.7-29.81,10.69-28.07,5.71-57.38,1.49-84.21-8-7.2-2.49-13.91,7.45-6,10.18,29.56,10.44,61.11,14.91,91.91,8.95,11.92-2.24,25.09-6,35.27-12.67-3.47-1.49-7-2.74-10.43-4.23.25,6.21.25,12.18.5,18.39q1.49-2.61,3-5.22c-21.86,10.68-48.69,11.18-72.79,9.69a325.82,325.82,0,0,1-41-5.22l5.21,5.22c-.74-6.71-1.49-13.67-2.23-20.37C33.35,109.26,20.18,110.26,20.93,117.46Z" transform="translate(0.48 -3.68)"/><path class="cls-1" d="M18.44,35.73c.25.25.25.5.5.5l-.74-.74A15.22,15.22,0,0,1,20.43,40c0-.5-.25-.75-.25-1a16.62,16.62,0,0,1,.25,5,2.22,2.22,0,0,1,.25-1.24,8.49,8.49,0,0,1-1.24,3.48c.25-.5.25-.75.49-1.25l-.74,1.5c-.25.24-.25.49-.5.49-.25.5-.25.25.5-.49a.83.83,0,0,0-.25.49c-.25.25-.25.5-.5.5-.74.74,1.25-1,.5-.5-.25.25-.5.5-.74.5-.75.5,1.73-1,.74-.5-.25,0-.5.25-.74.25-1,.5,2-.74.74-.25a.89.89,0,0,0-.74.25c2-.5,1.24-.25.74-.25h-.25a3.15,3.15,0,0,1-1.49-.25c.5,0,.75.25,1.24.25a7.37,7.37,0,0,1-2.48-1,1.87,1.87,0,0,0,1,.5,17.35,17.35,0,0,1-3.23-2.74l.75.75A15.25,15.25,0,0,1,12.23,40c0,.49.25.74.25,1a16.62,16.62,0,0,1-.25-5A2.2,2.2,0,0,1,12,37.22a8.27,8.27,0,0,1,1.25-3.47c-.25.49-.25.74-.5,1.24l.75-1.49c.24-.25.24-.5.49-.5.25-.5.25-.25-.49.5a.88.88,0,0,0,.24-.5c.25-.25.25-.5.5-.5.75-.74-1.24,1-.5.5.25-.25.5-.5.75-.5.74-.49-1.74,1-.75.5.25,0,.5-.25.75-.25,1-.49-2,.75-.75.25a.92.92,0,0,0,.75-.25c-2,.5-1.24.25-.75.25H14a3.11,3.11,0,0,1,1.49.25c-.49,0-.74-.25-1.24-.25a7.58,7.58,0,0,1,2.48,1,1.89,1.89,0,0,0-1-.49,10.72,10.72,0,0,1,2.73,2.23c.75,1,2.74,1,3.73.75a11,11,0,0,0,4.72-1.74,5.75,5.75,0,0,0,2.73-3.23,3.27,3.27,0,0,0-.74-3c-4.72-5.22-13.17-5.22-18.88-2a20,20,0,0,0-8.45,8,15.89,15.89,0,0,0-2,8.94C.06,49.15,3.79,54.61,9.5,56.1c7.7,2,16.64-2,20.87-8.69a16.64,16.64,0,0,0,2.48-9.69,14.54,14.54,0,0,0-3.72-8.94c-.75-1-2.74-1-3.73-.75a11,11,0,0,0-4.72,1.74A5.75,5.75,0,0,0,18,33a2.2,2.2,0,0,1-.25,1.24C17.45,34.49,17.7,35.24,18.44,35.73Z" transform="translate(0.48 -3.68)"/><path class="cls-1" d="M91.73,18.34a19,19,0,0,1-.5,3.73c0-.25,0-.25.25-.5A10.64,10.64,0,0,1,89,25.8a3.38,3.38,0,0,0-.74,1l-.5.5c-.25,0-.25.25-.5.25.5-.25.5-.25.25,0l.5-.25c-.5.25-.5.25.25,0A9.88,9.88,0,0,1,92,26.54h.75a4.81,4.81,0,0,1-2-.49,10.35,10.35,0,0,1-4-2.74.87.87,0,0,1,.25.5,11.88,11.88,0,0,1-2.49-11.68c0,.25,0,.25-.25.5a10.49,10.49,0,0,1,2.49-4.22,3.45,3.45,0,0,0,.74-1c-.25.25.5-.24.5-.49.25,0,.25-.25.5-.25-.5.25-.5.25-.25,0l-.5.25c.5-.25.5-.25-.25,0a10.06,10.06,0,0,1-3.72.74H83a4.66,4.66,0,0,1,2,.5,10.43,10.43,0,0,1,4,2.73l-.25-.25a13.33,13.33,0,0,1,3,7.7c0,.75,2,.75,2.23.75a30.25,30.25,0,0,0,4.72-.5,30,30,0,0,0,4.47-1.49c.5-.25,1.74-.74,1.74-1.49A12.17,12.17,0,0,0,95.7,4.19c-4.72-1.25-9.94,0-14.41,1.49a16.52,16.52,0,0,0-8,5.21A12.74,12.74,0,0,0,72.6,25.3a10.35,10.35,0,0,0,5.71,4.47c4,1.49,8.2,1,12.17,0,4.23-1,8.7-2.48,11.43-6a11.93,11.93,0,0,0,2.73-8.45c0-.74-2-.74-2.23-.74a30.25,30.25,0,0,0-4.72.5,30,30,0,0,0-4.47,1.49C92.72,17.1,91.73,17.6,91.73,18.34Z" transform="translate(0.48 -3.68)"/><path class="cls-1" d="M161.78,23.31h1.49c1,0-1.49-.25,0,0-1-.49-1.24-.49-.75-.25h.25c-1.24-.49-1.49-.74-.74-.24-1-.75-1.25-.75-.75-.5,1,.74-1.24-1-.25-.25,1.24,1-.49-.74,0,0,0,.5.25.75.75,1.24,0,.25,0,0-.5-.49l.5.49c.25.5.25.75.49,1,0,0,.5,1.24.25.49,0,.5.25.75.25,1.25a11.11,11.11,0,0,1,.25,5v-.74A13.12,13.12,0,0,1,159.79,37l.5-.5a14.16,14.16,0,0,1-2.24,1.74c-.5.25-.74.49-1.24.49-.75.25.25,0,0,0a.92.92,0,0,0-.75.25h-1.24c-1,0,1,.25.5,0-.5,0-.75-.49.5.25l-.5-.25c.5.25.74.25,1,.5-.49-.25-.49-.25.25.25h0s1.24,1,.5.49c0,0-.75-.74-.25,0s0,0-.25-.24l-.5-.5c-.74-.75.25.5,0,0,0-.25-.24-.5-.49-.75a5.6,5.6,0,0,0-.75-1.24c-.25-.49,0,.5,0-.25,0-.24-.25-.49-.25-.74,0-.5-.25-1-.25-1.49V32.26a13.16,13.16,0,0,1,3.23-6.71l-.49.5a13,13,0,0,1,2.23-1.74c.5-.25.75-.5,1.25-.5.24-.25.24,0,0,0a1.59,1.59,0,0,1,1.24-.5c3-.49,1-3.23-.5-4.22a12.93,12.93,0,0,0-4.47-2.48,8,8,0,0,0-4.22-.75c-5.72,1-9.44,5.71-10.19,11.43-.74,6.46,3.23,12.42,8.7,15.9,5.71,3.72,14.16,5.71,19.87.49,4.22-4,5-10.18,3-15.65a18.8,18.8,0,0,0-7.7-8.69c-4-2.49-8.7-4.22-13.66-3.48-3,.5-.75,3.23.49,4.22C155.32,21.82,158.8,23.56,161.78,23.31Z" transform="translate(0.48 -3.68)"/></svg>