<?xml version="1.0" encoding="utf-8"?>
<!-- Generator: Adobe Illustrator 21.1.0, SVG Export Plug-In . SVG Version: 6.00 Build 0)  -->
<svg version="1.1" id="圖層_1" xmlns="http://www.w3.org/2000/svg" xmlns:xlink="http://www.w3.org/1999/xlink" x="0px" y="0px"
	 viewBox="0 0 324 437" style="enable-background:new 0 0 324 437;" xml:space="preserve">
<style type="text/css">
	.st0{fill:#7C6987;}
	.st1{fill:none;}
	.st2{font-family:'ArialMT';}
	.st3{font-size:12px;}
	.st4{fill:#715B61;}
</style>
<g>
	<path class="st0" d="M99.1,69.9c-0.4,0.8,0.3,1.6,1.3,2.2s2.1,0.9,3.3,1.3c2.3,0.7,4.8,1.1,7.2,1.4c4.9,0.7,9.8,1,14.7,1.3
		c9.9,0.5,19.7,0.5,29.6,0.3s19.7-0.8,29.5-1.7c4.9-0.4,9.8-1,14.6-1.7s9.6-1.6,14-3c1.1-0.3,2.1-0.7,3.1-1.2c1-0.4,1.8-0.9,2.2-1.4
		c0.5-0.4,0.7-0.7,1.5-1.1l0.5-0.3c0.3-0.1,0.6-0.2,0.9-0.2c0.3,0,0.6-0.1,1,0c0.4,0,0.8,0.1,1.1,0.3c0.4,0.1,0.7,0.3,0.9,0.5
		s0.5,0.4,0.7,0.6c0.4,0.4,0.5,0.7,0.7,1c0.2,0.4,0.3,0.6,0.4,0.8c0.1,0.3,0.2,0.6,0.2,0.7c0.5,1.7,0.5,3.1,0.5,4.4
		c0,5.3-0.7,10.2-1.5,15.1c-1.7,9.8-4.2,19.4-7.1,28.8s-6.6,18.7-11,27.7s-9.5,17.7-16.3,25.6c-3.4,3.9-7.2,7.6-11.7,10.7
		c-4.5,3-9.8,5.4-15.5,6.3c-0.8,0.1-1.3,0.2-1.8,0.3l-1.5,0.3c-1,0.1-2.1,0.5-3.1,0.9c-2.1,0.6-4.1,1.7-6.1,2.6
		c-4,2.2-7.9,4.7-11.6,7.7c-7.4,5.8-14.2,12.7-20.5,19.9c-6.4,7.2-12.4,14.8-18.1,22.5c-11.4,15.6-21.9,32-31.3,48.9
		c-4.7,8.4-9.2,17-13.1,25.7c-1.9,4.4-3.8,8.8-5.2,13.2l-1,3.3c-0.2,1-0.5,2.2-0.6,3.1l-0.1,1.4c0,0.2,0,0.4,0,0.5
		c0,0,0.1,0.1-0.2-0.4c-0.1-0.1-0.2-0.4-0.4-0.5c-0.2-0.2-0.5-0.5-0.8-0.6c-0.7-0.4-1.5-0.4-1.9-0.3c-0.8,0.2-0.7,0.3-0.7,0.2
		c0.1-0.1,0.5-0.4,0.8-0.8c1.4-1.5,2.9-3.5,4.2-5.4c1.4-2,2.7-4,4.1-6l8-12.3c5.3-8.2,10.7-16.4,16.3-24.5
		c11.1-16.2,22.8-32.1,35.7-47c6.5-7.4,13.3-14.6,20.6-21.3s15.3-12.8,24.1-17.7c8.7-4.8,18.6-8.6,28.9-8.6
		c10.3-0.3,20.4,2.4,29.4,7s17,10.8,24.2,17.8c7.2,6.9,13.5,14.6,19.4,22.6c11.7,16,21,33.4,29.1,51.4c4,9,7.6,18.2,10.8,27.4
		c3.2,9.3,6.1,18.7,8.5,28.3s4.3,19.2,5.8,29s2.4,19.6,2.5,29.6l0.1,5.3l-5.5-1c-12.4-2.2-25.5-3.5-38.4-4.1s-25.9-0.5-38.8,0.2
		c-12.9,0.6-25.7,2.4-38.5,4.4c-12.6,2.5-25.2,5.2-37.3,9.4l-9.3,3c-3.2,1.1-6.4,2.1-9.7,3c-6.5,1.8-13.3,3.1-20.1,3.9
		c-13.6,1.6-27.5,1.1-40.9-1.6c-13.5-2.6-26.4-7.4-38.4-13.7c-6-3.1-11.7-6.7-17.3-10.5c-2.8-1.9-5.5-3.8-8.1-5.8l-3.9-2.8
		c-0.6-0.4-1.3-0.9-1.7-1.2l-0.4-0.3c-0.1-0.1-0.1,0-0.2-0.1H9.8c0,0-0.2-0.1,0.1,0c0.4,0.1,0.8,0.2,1.2,0.2L6,391.5
		c-1.3-3.1-1.9-6.2-2.2-9.1c-0.3-3-0.2-5.8,0-8.6c0.5-5.6,1.6-10.9,3.1-16c2.9-10.3,6.8-20.1,11.1-29.6c8.8-19,19.2-37,30.4-54.5
		c11.3-17.5,23.4-34.4,36.6-50.5c6.6-8,13.6-15.8,21.1-23.2c3.8-3.7,7.6-7.3,11.9-10.6s8.6-6.5,14.3-8.5l-1.4,4.8
		c-4.9-6.3-9.3-12.9-12.8-19.9c-3.4-7.1-6.4-14.3-8.5-21.8c-2.2-7.5-3.8-15.1-4.9-22.7c-1.1-7.7-1.8-15.3-1.8-23.1v0.2
		c-0.8-5.4-1.9-10.8-3.2-16.2c-0.7-2.7-1.4-5.3-2.4-7.8c-0.5-1.3-1-2.5-1.8-3.6c-0.4-0.5-0.8-1-1.3-1.2c-0.4-0.2-0.9,0-1.3,0.3
		l-0.8-0.7c0.5-0.6,1.6-1.1,2.5-0.7c0.9,0.3,1.4,0.9,1.9,1.5c0.9,1.2,1.6,2.5,2.1,3.7c1.2,2.6,2,5.2,2.9,7.9
		c1.6,5.3,2.9,10.8,4,16.2v0.1v0.2c0.3,7.5,1.4,15.1,2.8,22.5c1.4,7.5,3.4,14.8,5.8,22c2.3,7.2,5.4,14.1,8.9,20.7
		c3.5,6.7,7.9,12.8,12.7,18.5l2.7,3.3l-4.1,1.5c-4.1,1.5-8.2,4.6-12,7.8s-7.5,6.8-11,10.4c-7,7.4-13.5,15.2-19.9,23.3
		c-12.6,16.1-24.3,33-35,50.4C45.9,296,36,314,27.9,332.5c-4,9.3-7.6,18.7-10.2,28.2c-1.3,4.8-2.2,9.5-2.6,14.2
		c-0.4,4.6,0,9.2,1.4,12.5l-5.1-3.3c0.8,0,1.6,0.2,2.4,0.4c0.5,0.1,0.5,0.2,0.7,0.3L15,385c0.3,0.1,0.7,0.3,0.9,0.5l0.6,0.4
		c0.9,0.5,1.6,1,2.3,1.5l4,2.9c2.6,1.9,5.2,3.7,7.9,5.5c5.3,3.5,10.7,6.8,16.3,9.7c11.1,5.8,23,10.3,35.3,12.7
		c12.3,2.5,24.9,3,37.3,1.6c6.2-0.7,12.4-1.8,18.5-3.4c3.1-0.7,6.1-1.7,9.1-2.6l9.5-3c12.7-4.2,25.8-6.9,38.9-9.3
		c13.2-2,26.4-3.6,39.7-4.2c26.6-1.2,53.1,0.1,79.6,5.2l-5.4,4.3c0.1-19-2.8-38.1-7-56.9c-2.1-9.4-4.7-18.7-7.6-27.9
		c-2.9-9.2-6.2-18.3-9.9-27.2c-7.4-17.8-16.2-35.2-27.3-51.1c-5.5-7.9-11.5-15.6-18.4-22.4c-6.8-6.8-14.5-12.9-23-17.4
		s-18.1-7.1-27.7-6.8c-9.6,0-19,3.4-27.4,8.1c-8.5,4.8-16.2,10.8-23.3,17.4c-7.2,6.6-13.8,13.8-20.1,21.2
		c-12.5,14.9-23.6,31-34.1,47.4c-5.2,8.2-10.3,16.5-15.4,24.9l-7.7,12.5c-1.3,2.1-2.6,4.2-4,6.3c-1.4,2.1-2.8,4.1-4.6,6.3
		c-0.5,0.5-1,1.1-1.9,1.8c-0.5,0.3-0.9,0.7-2.3,1c-0.7,0.1-1.8,0.1-2.8-0.4c-0.4-0.2-0.9-0.6-1.2-0.9c-0.2-0.3-0.5-0.6-0.6-0.9
		c-0.6-1-0.6-1.5-0.7-2.1c-0.1-0.5-0.1-1-0.1-1.3l0.1-2.2c0.1-1.5,0.4-2.7,0.7-4l1-3.8c1.4-4.9,3.2-9.5,5.1-14.1
		c3.8-9.2,8.1-18,12.7-26.8c9.3-17.4,19.6-34.2,31.3-50.3c11.7-15.9,24.4-31.5,40.6-44.2c4-3.2,8.4-6,13.1-8.5
		c2.5-1.1,4.8-2.3,7.5-3.1c1.3-0.4,2.6-0.9,4-1.1l2.1-0.4l1.9-0.3c8.3-1.2,15.8-6.8,21.9-13.7c6.1-6.9,11.2-15.1,15.5-23.6
		s7.9-17.4,11-26.5s5.7-18.3,7.6-27.7c0.9-4.6,1.7-9.4,1.8-13.8c0-1.1-0.1-2.2-0.2-2.8c0-0.1,0-0.1,0-0.2c0,0,0-0.2,0,0
		c0.1,0.1,0,0.1,0.2,0.3c0.1,0.1,0.2,0.2,0.3,0.3c0.1,0.1,0.3,0.2,0.5,0.3c0.2,0.1,0.5,0.2,0.7,0.2s0.3,0,0.5,0s0.3-0.1,0.5-0.1h0.1
		c0.2-0.2,0.1,0,0,0c-1.4,1.3-2.8,1.9-4.1,2.5s-2.6,1-3.9,1.3c-5.1,1.4-10.1,2.1-15.1,2.7s-10,1-15,1.3c-10,0.6-19.9,0.7-29.9,0.5
		S135,80,125.1,79c-5-0.5-9.9-1.1-14.8-2c-2.5-0.5-4.9-1-7.3-1.8c-1.2-0.4-2.4-0.9-3.5-1.6c-0.6-0.4-1.1-0.8-1.5-1.4
		s-0.5-1.6-0.1-2.3L99.1,69.9z"/>
</g>
<g>
	<g>
		<g>
			<path class="st0" d="M131.1,24.7c1.2,8,2.4,16,3.7,24c0.1,0.9,2.8,3.4,3.7,3.6c9.3,1.7,19.1,2.4,28.6,2c3.6-0.2,7.2-0.6,10.7-1.3
				c1.6-0.3,3.3-0.7,4.8-1.2c1-0.3,3.8-0.9,4.4-1.7c0.5-0.7,0.3-2.6,0.3-3.3c0.2-2.4,0.5-4.8,0.7-7.2c0.4-4.2,0.8-8.4,1.2-12.6
				c0.1-0.9-3.9-3.6-3.8-3.7c-1.9,4-4.5,8-7.9,10.8c-2.2,1.8-5,3.2-7.9,2.3c-0.4-0.1-0.7-0.3-1.1-0.4c-0.6-0.2-0.9-0.9-0.1,0.1
				c-0.9-1.2-1.7-2.4-2.4-3.7c-1.8-3.5-3.1-7.1-4.2-10.8c-0.3-0.8-3.8-3.3-3.8-3.6c-1,4.8-2.7,9.9-5.3,14.1
				c-1.5,2.5-3.8,5.2-6.8,5.6c-5.6,0.9-8.8-5.5-11.1-9.4c-0.5-0.9-1.4-1.7-2.2-2.4C132.4,25.5,131,24.6,131.1,24.7
				c2.9,4.9,6.3,9.5,10.8,13.3c2.4,2,5.4,4,8.7,3.1c5.7-1.5,8.4-9.3,10-14.2c0.6-1.8,1.1-3.5,1.5-5.4c-1.3-1.2-2.5-2.4-3.8-3.6
				c1.7,5.6,3.7,11.4,7.5,15.9c2.1,2.5,5.1,5.9,8.7,6.4c5.5,0.8,9.9-5,12.5-9c0.9-1.4,1.8-2.9,2.5-4.4c-1.3-1.2-2.5-2.5-3.8-3.7
				c-0.3,3.4-0.7,6.9-1,10.3c-0.2,2.5-0.5,5-0.7,7.5c-0.2,1.4,0.1,3.6-0.5,5c-0.6,1.5-4.4,2.2-6,2.7c-3.4,0.9-6.9,1.5-10.5,1.8
				c-6.7,0.6-13.5,0.4-20.3-0.2c-3.9-0.3-7.8-0.8-11.6-1.5c1.2,1.2,2.5,2.4,3.7,3.6c-1.2-8-2.4-16-3.7-24c-0.1-0.8-1.6-1.9-2.2-2.4
				C132.4,25.5,131.1,24.4,131.1,24.7z"/>
		</g>
	</g>
	<g>
		<g>
			<path class="st0" d="M133.6,52c0.3,2.7,0.6,5.5,0.9,8.2c0.1,1.1,1,1.8,2.1,2.1c6,1.3,12.2,1.9,18.3,2.2c10.6,0.5,21.8,0,31.5-4.7
				c0.8-0.4,1.2-1.3,1.2-2.1c-0.1-2.5-0.1-4.9-0.2-7.4c0-1.9-2.8-2.6-4.2-1.7c-3.5,2.2-7.7,3.5-12,4.3c-11.3,2.3-23.1,0.6-33.9-3.2
				c-2.9-1-5.6,3-2.4,4.1c11.9,4.2,24.6,6,37,3.6c4.8-0.9,10.1-2.4,14.2-5.1c-1.4-0.6-2.8-1.1-4.2-1.7c0.1,2.5,0.1,4.9,0.2,7.4
				c0.4-0.7,0.8-1.4,1.2-2.1c-8.8,4.3-19.6,4.5-29.3,3.9c-5.5-0.4-11.1-1-16.5-2.1c0.7,0.7,1.4,1.4,2.1,2.1
				c-0.3-2.7-0.6-5.5-0.9-8.2C138.6,48.7,133.3,49.1,133.6,52z"/>
		</g>
	</g>
	<g>
		<g>
			<path class="st0" d="M132.6,19.1c0.1,0.1,0.1,0.2,0.2,0.2c-0.1-0.1-0.2-0.2-0.3-0.3c0.4,0.5,0.7,1.2,0.9,1.8
				c0-0.2-0.1-0.3-0.1-0.4c0.1,0.7,0.2,1.3,0.1,2c0-0.2,0-0.3,0.1-0.5c-0.1,0.5-0.2,1-0.5,1.4c0.1-0.2,0.1-0.3,0.2-0.5
				c-0.1,0.2-0.2,0.4-0.3,0.6c-0.1,0.1-0.1,0.2-0.2,0.2c-0.1,0.2-0.1,0.1,0.2-0.2c0,0-0.1,0.1-0.1,0.2c-0.1,0.1-0.1,0.2-0.2,0.2
				c-0.3,0.3,0.5-0.4,0.2-0.2c-0.1,0.1-0.2,0.2-0.3,0.2c-0.3,0.2,0.7-0.4,0.3-0.2c-0.1,0-0.2,0.1-0.3,0.1c-0.4,0.2,0.8-0.3,0.3-0.1
				c-0.1,0-0.2,0-0.3,0.1c0.8-0.2,0.5-0.1,0.3-0.1c-0.1,0-0.2,0-0.3,0c-0.2,0,0.7,0,0.2,0c-0.2,0-0.4,0-0.6-0.1
				c0.2,0,0.3,0.1,0.5,0.1c-0.4-0.1-0.7-0.2-1-0.4c0.1,0.1,0.3,0.2,0.4,0.2c-0.5-0.3-0.9-0.7-1.3-1.1c0.1,0.1,0.2,0.2,0.3,0.3
				c-0.4-0.5-0.7-1.2-0.9-1.8c0,0.2,0.1,0.3,0.1,0.4c-0.1-0.7-0.2-1.3-0.1-2c0,0.2,0,0.3-0.1,0.5c0.1-0.5,0.2-1,0.5-1.4
				c-0.1,0.2-0.1,0.3-0.2,0.5c0.1-0.2,0.2-0.4,0.3-0.6c0.1-0.1,0.1-0.2,0.2-0.2c0.1-0.2,0.1-0.1-0.2,0.2c0,0,0.1-0.1,0.1-0.2
				c0.1-0.1,0.1-0.2,0.2-0.2c0.3-0.3-0.5,0.4-0.2,0.2c0.1-0.1,0.2-0.2,0.3-0.2c0.3-0.2-0.7,0.4-0.3,0.2c0.1,0,0.2-0.1,0.3-0.1
				c0.4-0.2-0.8,0.3-0.3,0.1c0.1,0,0.2,0,0.3-0.1c-0.8,0.2-0.5,0.1-0.3,0.1c0.1,0,0.2,0,0.3,0c0.2,0-0.7,0-0.2,0
				c0.2,0,0.4,0,0.6,0.1c-0.2,0-0.3-0.1-0.5-0.1c0.4,0.1,0.7,0.2,1,0.4c-0.1-0.1-0.3-0.2-0.4-0.2C131.9,18.4,132.2,18.7,132.6,19.1
				c0.3,0.4,1.1,0.4,1.5,0.3c0.6-0.1,1.4-0.3,1.9-0.7c0.5-0.3,1-0.8,1.1-1.3s0-0.8-0.3-1.2c-1.9-2.1-5.3-2.1-7.6-0.8
				c-1.4,0.7-2.6,1.8-3.4,3.2c-0.6,1.1-0.9,2.3-0.8,3.6c0.2,2.3,1.7,4.5,4,5.1c3.1,0.8,6.7-0.8,8.4-3.5c0.7-1.2,1.1-2.5,1-3.9
				s-0.6-2.6-1.5-3.6c-0.3-0.4-1.1-0.4-1.5-0.3c-0.6,0.1-1.4,0.3-1.9,0.7c-0.5,0.3-1,0.8-1.1,1.3c0,0.2,0,0.3-0.1,0.5
				C132.2,18.6,132.3,18.9,132.6,19.1z"/>
		</g>
	</g>
	<g>
		<g>
			<path class="st0" d="M162.1,12.1c0,0.5-0.1,1-0.2,1.5c0-0.1,0-0.1,0.1-0.2c-0.2,0.6-0.5,1.2-1,1.7c-0.1,0.1-0.2,0.2-0.3,0.4
				c0.1-0.1-0.2,0.2-0.2,0.2c-0.1,0-0.1,0.1-0.2,0.1c0.2-0.1,0.2-0.1,0.1,0c-0.2,0.1-0.2,0.1,0.2-0.1c-0.2,0.1-0.2,0.1,0.1,0
				c0.5-0.2,1-0.3,1.5-0.3c-0.2,0-0.2,0,0.2,0c-0.2,0-0.2,0,0.1,0c-0.3,0-0.6-0.1-0.8-0.2c-0.6-0.2-1.1-0.6-1.6-1.1
				c0,0,0.1,0.1,0.1,0.2c-1.2-1.3-1.5-3.1-1-4.7c0,0.1,0,0.1-0.1,0.2c0.2-0.6,0.5-1.2,1-1.7c0.1-0.1,0.2-0.2,0.3-0.4
				c-0.1,0.1,0.2-0.1,0.2-0.2c0.1,0,0.1-0.1,0.2-0.1c-0.2,0.1-0.2,0.1-0.1,0c0.2-0.1,0.2-0.1-0.2,0.1c0.2-0.1,0.2-0.1-0.1,0
				c-0.5,0.2-1,0.3-1.5,0.3c0.2,0,0.2,0-0.2,0c0.2,0,0.2,0-0.1,0c0.3,0,0.6,0.1,0.8,0.2c0.6,0.2,1.1,0.6,1.6,1.1L160.9,9
				C161.6,9.8,162,10.9,162.1,12.1c0,0.3,0.8,0.3,0.9,0.3c0.6,0,1.3-0.1,1.9-0.2c0.6-0.2,1.2-0.3,1.8-0.6c0.2-0.1,0.7-0.3,0.7-0.6
				c-0.1-2.2-1.5-4-3.7-4.6c-1.9-0.5-4,0-5.8,0.6c-1.2,0.4-2.3,1-3.2,2.1c-1.3,1.6-1.4,4.1-0.3,5.8c0.5,0.8,1.3,1.5,2.3,1.8
				c1.6,0.6,3.3,0.4,4.9,0c1.7-0.4,3.5-1,4.6-2.4c0.8-1,1.2-2.2,1.1-3.4c0-0.3-0.8-0.3-0.9-0.3c-0.6,0-1.3,0.1-1.9,0.2
				c-0.6,0.2-1.2,0.3-1.8,0.6C162.5,11.6,162.1,11.8,162.1,12.1z"/>
		</g>
	</g>
	<g>
		<g>
			<path class="st0" d="M190.3,14.1c0.1,0,0.2,0,0.3,0c0.2,0,0.2,0-0.1,0c0,0,0.3,0,0.4,0c0.4,0-0.6-0.1,0,0
				c-0.4-0.2-0.5-0.2-0.3-0.1h0.1c-0.5-0.2-0.6-0.3-0.3-0.1c-0.4-0.3-0.5-0.3-0.3-0.2c0.4,0.3-0.5-0.4-0.1-0.1c0.5,0.4-0.2-0.3,0,0
				C190,13.8,190.1,13.9,190.3,14.1c0,0.1,0,0-0.2-0.2C190.2,14,190.2,14,190.3,14.1c0.1,0.2,0.1,0.3,0.2,0.4c0,0,0.2,0.5,0.1,0.2
				c0,0.2,0.1,0.3,0.1,0.5c0.2,0.7,0.2,1.3,0.1,2c0-0.1,0-0.2,0-0.3c-0.2,1-0.6,2-1.3,2.7c0.1-0.1,0.2-0.2,0.2-0.2
				c-0.3,0.3-0.6,0.5-0.9,0.7c-0.2,0.1-0.3,0.2-0.5,0.2c-0.3,0.1,0.1,0,0,0s-0.2,0-0.3,0.1c-0.1,0-0.2,0-0.3,0c-0.2,0,0.3,0,0.1,0
				c-0.1,0-0.2,0-0.3,0c-0.4,0,0.4,0.1,0.2,0c-0.2,0-0.3-0.2,0.2,0.1l-0.2-0.1c0.2,0.1,0.3,0.1,0.4,0.2c-0.2-0.1-0.2-0.1,0.1,0.1
				c0.5,0.3,0,0,0,0s0.5,0.4,0.2,0.2c0,0-0.3-0.3-0.1,0s0,0-0.1-0.1s-0.1-0.1-0.2-0.2c-0.3-0.3,0.1,0.2,0,0c0-0.1-0.1-0.2-0.2-0.3
				c-0.1-0.2-0.2-0.4-0.3-0.5c-0.1-0.2,0,0.2,0-0.1c0-0.1-0.1-0.2-0.1-0.3c0-0.2-0.1-0.4-0.1-0.6c0-0.5,0-0.9,0-1.4
				c0,0.1,0,0.2,0,0.3c0.2-1,0.6-2,1.3-2.7c-0.1,0.1-0.2,0.2-0.2,0.2c0.3-0.3,0.6-0.5,0.9-0.7c0.2-0.1,0.3-0.2,0.5-0.2
				c0.1-0.1,0.1,0,0,0C190,14.1,190.2,14.1,190.3,14.1c1.2-0.2,0.4-1.3-0.2-1.7c-0.5-0.4-1.1-0.8-1.8-1c-0.5-0.2-1.1-0.4-1.7-0.3
				c-2.3,0.4-3.8,2.3-4.1,4.6c-0.3,2.6,1.3,5,3.5,6.4c2.3,1.5,5.7,2.3,8,0.2c1.7-1.6,2-4.1,1.2-6.3c-0.6-1.5-1.8-2.7-3.1-3.5
				c-1.6-1-3.5-1.7-5.5-1.4c-1.2,0.2-0.3,1.3,0.2,1.7C187.7,13.5,189.1,14.2,190.3,14.1z"/>
		</g>
	</g>
</g>
<path id="SVGID_x5F_1_x5F_" class="st1" d="M1133.6-138.8c2.6,3.9,41.2,58.5,109.1,56.8c48.2-1.2,92-30.4,112.9-74.9"/>
<text class="st2 st3"> </text>
<text class="st2 st3"> </text>
<g>
	<path class="st4" d="M187.9,304.8c0,25.9,0.4,59.7,1,63.7c4,0.8,23.7,2.6,27.9,3l1,4.2c-5.1-0.4-32-0.8-41.3-0.8
		c-9.7,0-38.4,0.4-43.7,0.8l0.8-4.2c3-0.2,26.5-2.6,31.6-3c0.8-8.5,1-40.3,1-59.9v-13.3c0-6.5-0.2-37.2-1-46.1
		c-8.5,0.4-23.1,3-31.2,4.2l-1.4-4.2c7.3-1.8,36.6-11.3,57.7-18c-1,9.9-2.4,40.1-2.4,65.1V304.8z"/>
</g>
</svg>
